<?xml version="1.0" encoding="utf-8"?>
<!-- Generator: Adobe Illustrator 26.0.3, SVG Export Plug-In . SVG Version: 6.00 Build 0)  -->
<svg version="1.1" id="Слой_1" xmlns="http://www.w3.org/2000/svg" xmlns:xlink="http://www.w3.org/1999/xlink" x="0px" y="0px"
	 viewBox="0 0 1080 1080" style="enable-background:new 0 0 1080 1080;" xml:space="preserve">
<style type="text/css">
	.st0{fill:#FFFFFF;}
	.st1{fill:#2B2B2B;}
	.st2{fill:#FF6500;}
	.st3{fill:#3C3B3B;}
</style>
<g>
	<path class="st2" d="M205.8,492.8c-8.4-18.5-9.7-34.7-4-48.6c5.8-13.9,21-29.3,45.4-46.1l53.2-36.8l19.5-13.5l124.2-85.8l18.9-13.1
		l106.4-73.6L531.2,93L230.7,300.7c-37.6,26-58.8,53.7-63.4,82.9c-4.6,29.3,4.9,68,28.4,116.2L205.8,492.8z"/>
	<path class="st2" d="M527.2,245c15.9-13.4,31.7-19.6,47.4-18.7c15.7,1,35.7,9.9,60.2,26.8l53.3,36.8l19.5,13.5l124.2,85.7
		l18.9,13.1l106.5,73.5l70.3-60.1L727,208.1c-37.7-26-71.8-36.6-102.5-31.7c-30.7,4.9-66.4,25.5-107.3,61.7L527.2,245z"/>
	<path class="st2" d="M874.8,452.1l-3.9,11.2c18.2,10.3,29.3,22.7,33.2,37.2c3.8,14.5,1,35.4-8.4,62.7l-20.5,59.5l-7.5,21.8
		L820,783.2l-7.3,21.2l-41,118.9l81.7,45.3l115.7-335.7c14.5-42.1,14.6-76.2,0.3-102.5C955.1,504.1,923.6,478,874.8,452.1z"/>
	<path class="st2" d="M764.7,843.6c-4.5,19.7-13.5,33.6-26.7,41.7c-13.2,8-35,12.1-65.2,12.2l-65.8,0.3l-24.1,0.1l-153.5,0.6
		l-23.4,0.1l-131.5,0.5l-19.4,88l371.3-1.3c46.5-0.2,80.7-10.8,102.4-32c21.7-21.2,37.8-57.9,48.3-110.1L764.7,843.6z"/>
	<path class="st2" d="M536.2,504.6c8.4,1.4,16.5-0.1,24.3-4.6c0.6-0.2,1.1-0.3,1.7-0.4c14.5-4.8,29.9-17.9,46.2-39.2l22.2-31.5
		l27.9-36.6l16.9-22.2l32.1-38l-19.5-13.5c-28.5,22.7-62.1,45.3-100.9,67.7c-10.6,6.1-20,11.9-28.5,17.4l-0.2-0.3l-21.9-26.6
		c-2.2-2.8-7-8.7-14.5-17.7c-7.5-9.1-12.4-15-14.7-18l-17.2-23.8l-27.2-39.7l-18.9,13.1c7,16.6,13.4,34.1,19.3,52.4
		c5.8,18.3,11.3,38.2,16.5,59.5c10.8,43.3,21.1,71.5,31.2,84.6C518.3,496.5,526.6,502.4,536.2,504.6z"/>
	<path class="st2" d="M842.3,633.2c-31.5-18.9-64.3-42.4-98.6-70.6c-9.1-7.5-17.6-14.2-25.5-20.1c0.2-0.3,0.5-0.6,0.7-0.9l2.6-3.7
		l19.8-28c2.1-2.8,6.5-9,13.2-18.6c6.7-9.6,11.2-15.8,13.5-18.9l18.4-22.9l31.3-36.9l-18.9-13.1c-14.5,11.5-29.9,22.7-46.4,33.7
		c-16.5,10.9-34.6,22-54.4,33.3c-39.9,23.1-64.9,41.2-74.9,54.4c-7.1,9.4-10.4,18.7-9.7,28.1c0.2,1.5,0.6,3,1,4.5
		c0.6,7.7,3.3,14.8,8.2,21c9.2,11.7,27,21.6,53.4,29.8l38.3,10.5l45.1,14.1l27.4,8.6l47.8,17.5L842.3,633.2z"/>
	<path class="st2" d="M340.5,519.1c-3.5,1.1-10.9,3.6-22.2,7.6c-11.4,4-18.9,6.5-22.5,7.7l-29.1,8.2l-48.1,12.3l7.2,21.2
		c18.8-1.2,38.3-1.6,58.4-1.2c20.1,0.4,41.6,1.6,64.6,3.5c34.7,2.7,60.9,3.1,78.7,1c7.3,0.9,14.7-0.9,21.9-5.4
		c8.3-3.6,14.6-8.5,18.8-14.9c2.1-3.7,3.3-7.5,3.8-11.5c1.3-4,2-8.2,1.9-12.6c-0.3-14.6-8.6-32.5-24.9-53.9l-24.6-29.8l-27.9-36.6
		l-16.9-22.2l-28-40.8l-19.5,13.5c13.9,32.8,26,70.2,36.4,112.2c2.7,10.7,5.3,20.5,8,29.4l-2.5,0.9L340.5,519.1z"/>
	<path class="st2" d="M584.4,871.6c8.9-34.4,22-71.4,39.4-111.3c4.9-11.1,9-21.3,12.5-30.6l33.1,9.1c3.5,1.1,11,3.2,22.6,6.3
		c11.6,3.2,19.3,5.3,23,6.4l28.6,9.7l46.4,17l7.3-21.2c-15.9-9.6-31.9-20.2-47.9-31.7c-16-11.6-32.6-24.6-50-39
		c-35.4-29.1-61.1-46.2-77.4-51.2c-11.6-3.6-21.9-3.7-31.1-0.2c-8.2,3.8-14,10-17.6,18.8c0,0.1,0,0.1-0.1,0.1
		c-0.3,0.6-0.5,1.4-0.8,2c-0.2,0.4-0.2,0.9-0.4,1.3c-7.7,12.1-11.5,30.4-11.5,55.2l1.6,37.9l0.2,45.2l0.1,27.4l-2.4,48.7
		L584.4,871.6z"/>
	<path class="st2" d="M424.6,869.1L448,869c4.5-17.4,10.1-35.2,16.6-53.3c6.5-18.1,14.3-37.2,23.2-57.4c17.9-41.1,26.8-69.7,26.7-86
		c0-11.6-3.2-20.9-9.6-28.1c-0.4-0.4-0.8-0.6-1.2-1c-5.7-7.7-13.1-12.9-22.3-15.5c-14.7-4.3-35.2-2.3-61.6,5.8l-37.4,13l-45.2,13.9
		l-27.4,8.4l-49.5,12.7l7.4,21.8c37.1-2.4,78.2-1.8,123.4,1.8c12.2,1,23.3,1.6,33.4,1.9c0,0.8,0,1.5,0,2.3l0.2,4.5l1.4,33.8
		c0,3.5,0.3,10.9,0.9,22.4c0.5,11.5,0.8,19.1,0.8,22.8l-0.7,28.9L424.6,869.1z"/>
	<path class="st2" d="M355.1,870.5l-3.8-11.3c-21.1,1.9-37.7-2-49.9-11.5c-12.1-9.5-22.7-28-32.1-55.3L249,732.8l-7.4-21.8
		l-47.3-138.9l-7.2-21.2l-40.6-119l-94,9.2l114.5,336.1c14.4,42.1,35.4,69.8,63.2,83C258,873.4,299.7,876.8,355.1,870.5z"/>
</g>
</svg>
